<?xml version="1.0" ?><!DOCTYPE svg  PUBLIC '-//W3C//DTD SVG 1.1//EN'  'http://www.w3.org/Graphics/SVG/1.1/DTD/svg11.dtd'><svg enable-background="new 0 0 64 64" height="64px" id="Layer_1" version="1.1" viewBox="0 0 64 64" width="64px" xml:space="preserve" xmlns="http://www.w3.org/2000/svg" xmlns:xlink="http://www.w3.org/1999/xlink" fill="#ffffff" fill-rule="evenodd"><path d="M32,11.75c-11.166,0-20.25,9.084-20.25,20.25S20.834,52.25,32,52.25S52.25,43.166,52.25,32S43.166,11.75,32,11.75z   M32,49.25c-9.512,0-17.25-7.738-17.25-17.25S22.488,14.75,32,14.75S49.25,22.488,49.25,32S41.512,49.25,32,49.25z"/><path d="M32,18.392c-0.829,0-1.5,0.671-1.5,1.5v24.216c0,0.828,0.671,1.5,1.5,1.5c7.503,0,13.607-6.104,13.607-13.608  C45.607,24.497,39.503,18.392,32,18.392z M33.5,42.489V21.511c5.139,0.733,9.107,5.15,9.107,10.489S38.639,41.757,33.5,42.489z"/><path d="M32,9.759c0.829,0,1.5-0.671,1.5-1.5V2.125c0-0.829-0.671-1.5-1.5-1.5s-1.5,0.671-1.5,1.5v6.134  C30.5,9.088,31.171,9.759,32,9.759z"/><path d="M32,54.24c-0.829,0-1.5,0.672-1.5,1.5v6.135c0,0.828,0.671,1.5,1.5,1.5s1.5-0.672,1.5-1.5V55.74  C33.5,54.912,32.829,54.24,32,54.24z"/><path d="M61.875,30.5H55.74c-0.828,0-1.5,0.671-1.5,1.5s0.672,1.5,1.5,1.5h6.135c0.828,0,1.5-0.671,1.5-1.5S62.703,30.5,61.875,30.5  z"/><path d="M8.26,30.5H2.125c-0.829,0-1.5,0.671-1.5,1.5s0.671,1.5,1.5,1.5H8.26c0.829,0,1.5-0.671,1.5-1.5S9.088,30.5,8.26,30.5z"/><path d="M48.787,16.713c0.384,0,0.768-0.146,1.061-0.439l4.338-4.338c0.586-0.585,0.586-1.536,0-2.121  c-0.586-0.586-1.535-0.586-2.121,0l-4.338,4.338c-0.586,0.585-0.586,1.536,0,2.121C48.02,16.566,48.403,16.713,48.787,16.713z"/><path d="M14.152,47.727l-4.338,4.338c-0.586,0.586-0.586,1.535,0,2.121c0.293,0.293,0.677,0.439,1.061,0.439  s0.768-0.146,1.061-0.439l4.338-4.338c0.586-0.586,0.586-1.535,0-2.121S14.738,47.141,14.152,47.727z"/><path d="M14.152,16.273c0.293,0.293,0.677,0.439,1.061,0.439s0.768-0.146,1.061-0.439c0.586-0.585,0.586-1.536,0-2.121l-4.338-4.338  c-0.586-0.586-1.535-0.586-2.121,0c-0.586,0.585-0.586,1.536,0,2.121L14.152,16.273z"/><path d="M49.848,47.727c-0.586-0.586-1.535-0.586-2.121,0s-0.586,1.535,0,2.121l4.338,4.338c0.293,0.293,0.677,0.439,1.061,0.439  s0.768-0.146,1.061-0.439c0.586-0.586,0.586-1.535,0-2.121L49.848,47.727z" fill="#ffffff" fill-rule="evenodd"/></svg>